<?xml version="1.0" encoding="UTF-8" standalone="no"?>
<svg
   xmlns:ns1="http://www.iki.fi/pav/software/textext/"
   xmlns:dc="http://purl.org/dc/elements/1.1/"
   xmlns:cc="http://creativecommons.org/ns#"
   xmlns:rdf="http://www.w3.org/1999/02/22-rdf-syntax-ns#"
   xmlns:svg="http://www.w3.org/2000/svg"
   xmlns="http://www.w3.org/2000/svg"
   id="svg8"
   version="1.1"
   viewBox="0 0 126.31445 36.641464"
   height="36.641464mm"
   width="126.31445mm">
  <defs
     id="defs2">
    <marker
       orient="auto"
       refY="0"
       refX="0"
       id="marker9631"
       style="overflow:visible">
      <path
         id="path9629"
         style="fill:#000000;fill-opacity:1;fill-rule:evenodd;stroke:#000000;stroke-width:0.625;stroke-linejoin:round;stroke-opacity:1"
         d="M 8.7185878,4.0337352 -2.2072895,0.01601326 8.7185884,-4.0017078 c -1.7454984,2.3720609 -1.7354408,5.6174519 -6e-7,8.035443 z"
         transform="scale(-0.6)" />
    </marker>
    <marker
       style="overflow:visible"
       id="marker9537"
       refX="0"
       refY="0"
       orient="auto">
      <path
         transform="scale(-0.6)"
         d="M 8.7185878,4.0337352 -2.2072895,0.01601326 8.7185884,-4.0017078 c -1.7454984,2.3720609 -1.7354408,5.6174519 -6e-7,8.035443 z"
         style="fill:#000000;fill-opacity:1;fill-rule:evenodd;stroke:#000000;stroke-width:0.625;stroke-linejoin:round;stroke-opacity:1"
         id="path9535" />
    </marker>
    <marker
       style="overflow:visible"
       id="marker9279"
       refX="0"
       refY="0"
       orient="auto">
      <path
         transform="scale(-0.6)"
         d="M 8.7185878,4.0337352 -2.2072895,0.01601326 8.7185884,-4.0017078 c -1.7454984,2.3720609 -1.7354408,5.6174519 -6e-7,8.035443 z"
         style="fill:#000000;fill-opacity:1;fill-rule:evenodd;stroke:#000000;stroke-width:0.625;stroke-linejoin:round;stroke-opacity:1"
         id="path9277" />
    </marker>
    <marker
       orient="auto"
       refY="0"
       refX="0"
       id="marker8485"
       style="overflow:visible">
      <path
         id="path8483"
         style="fill:#000000;fill-opacity:1;fill-rule:evenodd;stroke:#000000;stroke-width:0.625;stroke-linejoin:round;stroke-opacity:1"
         d="M 8.7185878,4.0337352 -2.2072895,0.01601326 8.7185884,-4.0017078 c -1.7454984,2.3720609 -1.7354408,5.6174519 -6e-7,8.035443 z"
         transform="scale(-0.6)" />
    </marker>
    <marker
       orient="auto"
       refY="0"
       refX="0"
       id="marker8409"
       style="overflow:visible">
      <path
         id="path8407"
         style="fill:#000000;fill-opacity:1;fill-rule:evenodd;stroke:#000000;stroke-width:0.625;stroke-linejoin:round;stroke-opacity:1"
         d="M 8.7185878,4.0337352 -2.2072895,0.01601326 8.7185884,-4.0017078 c -1.7454984,2.3720609 -1.7354408,5.6174519 -6e-7,8.035443 z"
         transform="scale(-0.6)" />
    </marker>
    <marker
       orient="auto"
       refY="0"
       refX="0"
       id="marker8327"
       style="overflow:visible">
      <path
         id="path8325"
         style="fill:#000000;fill-opacity:1;fill-rule:evenodd;stroke:#000000;stroke-width:0.625;stroke-linejoin:round;stroke-opacity:1"
         d="M 8.7185878,4.0337352 -2.2072895,0.01601326 8.7185884,-4.0017078 c -1.7454984,2.3720609 -1.7354408,5.6174519 -6e-7,8.035443 z"
         transform="scale(-0.6)" />
    </marker>
    <marker
       orient="auto"
       refY="0"
       refX="0"
       id="marker8263"
       style="overflow:visible">
      <path
         id="path8261"
         style="fill:#000000;fill-opacity:1;fill-rule:evenodd;stroke:#000000;stroke-width:0.625;stroke-linejoin:round;stroke-opacity:1"
         d="M 8.7185878,4.0337352 -2.2072895,0.01601326 8.7185884,-4.0017078 c -1.7454984,2.3720609 -1.7354408,5.6174519 -6e-7,8.035443 z"
         transform="scale(-0.6)" />
    </marker>
    <marker
       orient="auto"
       refY="0"
       refX="0"
       id="marker5163"
       style="overflow:visible">
      <path
         id="path5161"
         style="fill:#000000;fill-opacity:1;fill-rule:evenodd;stroke:#000000;stroke-width:0.625;stroke-linejoin:round;stroke-opacity:1"
         d="M 8.7185878,4.0337352 -2.2072895,0.01601326 8.7185884,-4.0017078 c -1.7454984,2.3720609 -1.7354408,5.6174519 -6e-7,8.035443 z"
         transform="scale(-0.6)" />
    </marker>
    <marker
       style="overflow:visible"
       id="marker4969"
       refX="0"
       refY="0"
       orient="auto">
      <path
         transform="scale(-0.6)"
         d="M 8.7185878,4.0337352 -2.2072895,0.01601326 8.7185884,-4.0017078 c -1.7454984,2.3720609 -1.7354408,5.6174519 -6e-7,8.035443 z"
         style="fill:#000000;fill-opacity:1;fill-rule:evenodd;stroke:#000000;stroke-width:0.625;stroke-linejoin:round;stroke-opacity:1"
         id="path4967" />
    </marker>
  </defs>
  <metadata
     id="metadata5">
    <rdf:RDF>
      <cc:Work
         rdf:about="">
        <dc:format>image/svg+xml</dc:format>
        <dc:type
           rdf:resource="http://purl.org/dc/dcmitype/StillImage" />
        <dc:title></dc:title>
      </cc:Work>
    </rdf:RDF>
  </metadata>
  <g
     transform="translate(-11.895238,-161.91137)"
     id="layer1">
    <g
       style="stroke-width:0.40000001;stroke-miterlimit:4;stroke-dasharray:none"
       id="g4959"
       transform="translate(0,102.65839)">
      <rect
         style="fill:#ffc0cb;fill-opacity:1;stroke:none;stroke-width:0.40000001;stroke-linecap:round;stroke-miterlimit:4;stroke-dasharray:none"
         id="rect4769"
         width="44.998062"
         height="14.69381"
         x="77.182739"
         y="63.434341" />
      <rect
         y="63.434341"
         x="12.095184"
         height="14.69381"
         width="53.483631"
         id="rect4771"
         style="fill:#90ee90;fill-opacity:1;stroke:none;stroke-width:0.40000001;stroke-linecap:round;stroke-miterlimit:4;stroke-dasharray:none" />
      <path
         style="fill:none;stroke:#000000;stroke-width:0.40000001;stroke-linecap:butt;stroke-linejoin:miter;stroke-miterlimit:4;stroke-dasharray:none;stroke-opacity:1"
         d="M 12.095238,59.252976 V 82.309522"
         id="path4773" />
      <path
         style="fill:none;stroke:#000000;stroke-width:0.40000001;stroke-linecap:butt;stroke-linejoin:miter;stroke-miterlimit:4;stroke-dasharray:none;stroke-opacity:1"
         d="M 12.047991,70.781248 H 122.40944"
         id="path4775" />
      <path
         id="use4781"
         d="m 68.18937,72.429979 2.849285,3.952233"
         style="fill:none;stroke:#000000;stroke-width:0.40000001;stroke-linecap:round;stroke-linejoin:miter;stroke-miterlimit:4;stroke-dasharray:none;stroke-opacity:1;marker-end:url(#marker8409)" />
      <path
         style="fill:none;stroke:#000000;stroke-width:0.40000001;stroke-linecap:round;stroke-linejoin:miter;stroke-miterlimit:4;stroke-dasharray:none;stroke-opacity:1"
         d="m 21.620244,68.248808 v 5.06488"
         id="path4797" />
      <path
         id="use4799"
         d="m 32.203578,68.248808 v 5.06488"
         style="fill:none;stroke:#000000;stroke-width:0.40000001;stroke-linecap:round;stroke-linejoin:miter;stroke-miterlimit:4;stroke-dasharray:none;stroke-opacity:1" />
      <path
         id="use4801"
         d="m 43.316085,68.248808 v 5.06488"
         style="fill:none;stroke:#000000;stroke-width:0.40000001;stroke-linecap:round;stroke-linejoin:miter;stroke-miterlimit:4;stroke-dasharray:none;stroke-opacity:1" />
      <path
         id="use4803"
         d="m 54.428592,68.248808 v 5.06488"
         style="fill:none;stroke:#000000;stroke-width:0.40000001;stroke-linecap:round;stroke-linejoin:miter;stroke-miterlimit:4;stroke-dasharray:none;stroke-opacity:1" />
      <path
         id="use4805"
         d="m 65.541099,68.248808 v 5.06488"
         style="fill:none;stroke:#000000;stroke-width:0.40000001;stroke-linecap:round;stroke-linejoin:miter;stroke-miterlimit:4;stroke-dasharray:none;stroke-opacity:1" />
      <path
         id="use4807"
         d="m 77.182773,68.248808 v 5.06488"
         style="fill:none;stroke:#000000;stroke-width:0.40000001;stroke-linecap:round;stroke-linejoin:miter;stroke-miterlimit:4;stroke-dasharray:none;stroke-opacity:1" />
      <path
         id="use4809"
         d="m 88.824447,68.248808 v 5.06488"
         style="fill:none;stroke:#000000;stroke-width:0.40000001;stroke-linecap:round;stroke-linejoin:miter;stroke-miterlimit:4;stroke-dasharray:none;stroke-opacity:1" />
      <path
         id="use4811"
         d="m 100.46612,68.248808 v 5.06488"
         style="fill:none;stroke:#000000;stroke-width:0.40000001;stroke-linecap:round;stroke-linejoin:miter;stroke-miterlimit:4;stroke-dasharray:none;stroke-opacity:1" />
      <path
         id="use4813"
         d="m 112.10779,68.248808 v 5.06488"
         style="fill:none;stroke:#000000;stroke-width:0.40000001;stroke-linecap:round;stroke-linejoin:miter;stroke-miterlimit:4;stroke-dasharray:none;stroke-opacity:1" />
      <path
         id="use4963"
         d="m 71.361936,68.248808 v 5.06488"
         style="fill:none;stroke:#000000;stroke-width:0.40000001;stroke-linecap:round;stroke-linejoin:miter;stroke-miterlimit:4;stroke-dasharray:none;stroke-opacity:1" />
      <path
         id="use5159"
         d="m 73.813451,72.463388 2.849285,3.952233"
         style="fill:none;stroke:#000000;stroke-width:0.40000001;stroke-linecap:round;stroke-linejoin:miter;stroke-miterlimit:4;stroke-dasharray:none;stroke-opacity:1;marker-end:url(#marker8485)" />
      <g
         style="stroke-width:0.75590503;stroke-miterlimit:4;stroke-dasharray:none"
         transform="matrix(0.529167,0,0,0.529167,-50.885506,18.197181)"
         ns1:version="0.10.2"
         ns1:texconverter="pdflatex"
         ns1:pdfconverter="pdf2svg"
         ns1:text="\\center\nRecurse on intervals\\\\\nwhich are still unknown"
         ns1:preamble="/home/twright/.config/inkscape/extensions/textext/default_packages.tex"
         ns1:scale="1.5"
         ns1:alignment="middle center"
         inkscapeversion="0.92.4"
         ns1:jacobian_sqrt="0.529167"
         id="g5524">
        <g
           style="stroke-width:0.75590503;stroke-miterlimit:4;stroke-dasharray:none"
           id="g5522">
          <g
             style="fill:#000000;fill-opacity:1;stroke-width:0.75590503;stroke-miterlimit:4;stroke-dasharray:none"
             id="g5438">
            <path
               style="stroke:none;stroke-width:0.75590503;stroke-miterlimit:4;stroke-dasharray:none"
               d="M 2.234375,-3.515625 V -6.09375 c 0,-0.234375 0,-0.359375 0.21875,-0.390625 C 2.546875,-6.5 2.84375,-6.5 3.046875,-6.5 c 0.890625,0 2,0.046875 2,1.484375 0,0.6875 -0.234375,1.5 -1.703125,1.5 z m 2.109375,0.125 C 5.296875,-3.625 6.078125,-4.234375 6.078125,-5.015625 6.078125,-5.96875 4.9375,-6.8125 3.484375,-6.8125 H 0.34375 V -6.5 h 0.25 c 0.765625,0 0.78125,0.109375 0.78125,0.46875 v 5.25 c 0,0.359375 -0.015625,0.46875 -0.78125,0.46875 h -0.25 V 0 c 0.359375,-0.03125 1.078125,-0.03125 1.453125,-0.03125 0.390625,0 1.109375,0 1.46875,0.03125 v -0.3125 h -0.25 c -0.765625,0 -0.78125,-0.109375 -0.78125,-0.46875 V -3.296875 H 3.375 c 0.15625,0 0.578125,0 0.9375,0.34375 0.375,0.34375 0.375,0.65625 0.375,1.328125 0,0.640625 0,1.046875 0.40625,1.421875 0.40625,0.359375 0.953125,0.421875 1.25,0.421875 0.78125,0 0.953125,-0.8125 0.953125,-1.09375 0,-0.0625 0,-0.171875 -0.125,-0.171875 -0.109375,0 -0.109375,0.09375 -0.125,0.15625 C 6.984375,-0.171875 6.640625,0 6.390625,0 5.90625,0 5.828125,-0.515625 5.6875,-1.4375 L 5.546875,-2.234375 C 5.375,-2.875 4.890625,-3.203125 4.34375,-3.390625 Z m 0,0"
               transform="translate(261.747,134.765)"
               id="path5424" />
            <path
               style="stroke:none;stroke-width:0.75590503;stroke-miterlimit:4;stroke-dasharray:none"
               d="M 1.109375,-2.515625 C 1.171875,-4 2.015625,-4.25 2.359375,-4.25 c 1.015625,0 1.125,1.34375 1.125,1.734375 z m 0,0.21875 h 2.78125 c 0.21875,0 0.25,0 0.25,-0.21875 0,-0.984375 -0.546875,-1.953125 -1.78125,-1.953125 -1.15625,0 -2.078125,1.03125 -2.078125,2.28125 0,1.328125 1.046875,2.296875 2.1875,2.296875 C 3.6875,0.109375 4.140625,-1 4.140625,-1.1875 4.140625,-1.28125 4.0625,-1.3125 4,-1.3125 c -0.078125,0 -0.109375,0.0625 -0.125,0.140625 -0.34375,1.03125 -1.25,1.03125 -1.34375,1.03125 -0.5,0 -0.890625,-0.296875 -1.125,-0.671875 -0.296875,-0.46875 -0.296875,-1.125 -0.296875,-1.484375 z m 0,0"
               transform="translate(269.08047,134.765)"
               id="path5426" />
            <path
               style="stroke:none;stroke-width:0.75590503;stroke-miterlimit:4;stroke-dasharray:none"
               d="m 1.171875,-2.171875 c 0,-1.625 0.8125,-2.046875 1.34375,-2.046875 0.09375,0 0.71875,0.015625 1.0625,0.375 -0.40625,0.03125 -0.46875,0.328125 -0.46875,0.453125 0,0.265625 0.1875,0.453125 0.453125,0.453125 0.265625,0 0.46875,-0.15625 0.46875,-0.46875 0,-0.671875 -0.765625,-1.0625 -1.53125,-1.0625 -1.25,0 -2.15625,1.078125 -2.15625,2.3125 0,1.28125 0.984375,2.265625 2.140625,2.265625 1.328125,0 1.65625,-1.203125 1.65625,-1.296875 0,-0.09375 -0.109375,-0.09375 -0.140625,-0.09375 -0.078125,0 -0.109375,0.03125 -0.125,0.09375 -0.28125,0.921875 -0.9375,1.046875 -1.296875,1.046875 -0.53125,0 -1.40625,-0.421875 -1.40625,-2.03125 z m 0,0"
               transform="translate(273.50785,134.765)"
               id="path5428" />
            <path
               style="stroke:none;stroke-width:0.75590503;stroke-miterlimit:4;stroke-dasharray:none"
               d="M 3.890625,-0.78125 V 0.109375 L 5.328125,0 V -0.3125 C 4.640625,-0.3125 4.5625,-0.375 4.5625,-0.875 v -3.53125 l -1.46875,0.109375 v 0.3125 c 0.6875,0 0.78125,0.0625 0.78125,0.5625 v 1.765625 c 0,0.875 -0.484375,1.546875 -1.21875,1.546875 -0.828125,0 -0.875,-0.46875 -0.875,-0.984375 v -3.3125 L 0.3125,-4.296875 v 0.3125 c 0.78125,0 0.78125,0.03125 0.78125,0.90625 v 1.5 c 0,0.78125 0,1.6875 1.515625,1.6875 0.5625,0 1,-0.28125 1.28125,-0.890625 z m 0,0"
               transform="translate(277.93523,134.765)"
               id="path5430" />
            <path
               style="stroke:none;stroke-width:0.75590503;stroke-miterlimit:4;stroke-dasharray:none"
               d="M 1.671875,-3.3125 V -4.40625 L 0.28125,-4.296875 v 0.3125 c 0.703125,0 0.78125,0.0625 0.78125,0.5625 V -0.75 c 0,0.4375 -0.109375,0.4375 -0.78125,0.4375 V 0 c 0.390625,-0.015625 0.859375,-0.03125 1.140625,-0.03125 0.390625,0 0.859375,0 1.265625,0.03125 V -0.3125 H 2.46875 c -0.734375,0 -0.75,-0.109375 -0.75,-0.46875 V -2.3125 c 0,-0.984375 0.421875,-1.875 1.171875,-1.875 0.0625,0 0.09375,0 0.109375,0.015625 -0.03125,0 -0.234375,0.125 -0.234375,0.390625 0,0.265625 0.21875,0.421875 0.4375,0.421875 0.171875,0 0.421875,-0.125 0.421875,-0.4375 0,-0.3125 -0.3125,-0.609375 -0.734375,-0.609375 -0.734375,0 -1.09375,0.671875 -1.21875,1.09375 z m 0,0"
               transform="translate(283.47045,134.765)"
               id="path5432" />
            <path
               style="stroke:none;stroke-width:0.75590503;stroke-miterlimit:4;stroke-dasharray:none"
               d="m 2.078125,-1.9375 c 0.21875,0.046875 1.03125,0.203125 1.03125,0.921875 0,0.5 -0.34375,0.90625 -1.125,0.90625 -0.84375,0 -1.203125,-0.5625 -1.390625,-1.421875 C 0.5625,-1.65625 0.5625,-1.6875 0.453125,-1.6875 c -0.125,0 -0.125,0.0625 -0.125,0.234375 V -0.125 c 0,0.171875 0,0.234375 0.109375,0.234375 0.046875,0 0.0625,-0.015625 0.25,-0.203125 0.015625,-0.015625 0.015625,-0.03125 0.203125,-0.21875 0.4375,0.40625 0.890625,0.421875 1.09375,0.421875 1.140625,0 1.609375,-0.671875 1.609375,-1.390625 0,-0.515625 -0.296875,-0.828125 -0.421875,-0.9375 C 2.84375,-2.546875 2.453125,-2.625 2.03125,-2.703125 1.46875,-2.8125 0.8125,-2.9375 0.8125,-3.515625 c 0,-0.359375 0.25,-0.765625 1.109375,-0.765625 1.09375,0 1.15625,0.90625 1.171875,1.203125 0,0.09375 0.09375,0.09375 0.109375,0.09375 0.140625,0 0.140625,-0.046875 0.140625,-0.234375 v -1.015625 c 0,-0.15625 0,-0.234375 -0.109375,-0.234375 -0.046875,0 -0.078125,0 -0.203125,0.125 -0.03125,0.03125 -0.125,0.125 -0.171875,0.15625 -0.375,-0.28125 -0.78125,-0.28125 -0.9375,-0.28125 -1.21875,0 -1.59375,0.671875 -1.59375,1.234375 0,0.34375 0.15625,0.625 0.421875,0.84375 0.328125,0.25 0.609375,0.3125 1.328125,0.453125 z m 0,0"
               transform="translate(287.3728,134.765)"
               id="path5434" />
            <path
               style="stroke:none;stroke-width:0.75590503;stroke-miterlimit:4;stroke-dasharray:none"
               d="M 1.109375,-2.515625 C 1.171875,-4 2.015625,-4.25 2.359375,-4.25 c 1.015625,0 1.125,1.34375 1.125,1.734375 z m 0,0.21875 h 2.78125 c 0.21875,0 0.25,0 0.25,-0.21875 0,-0.984375 -0.546875,-1.953125 -1.78125,-1.953125 -1.15625,0 -2.078125,1.03125 -2.078125,2.28125 0,1.328125 1.046875,2.296875 2.1875,2.296875 C 3.6875,0.109375 4.140625,-1 4.140625,-1.1875 4.140625,-1.28125 4.0625,-1.3125 4,-1.3125 c -0.078125,0 -0.109375,0.0625 -0.125,0.140625 -0.34375,1.03125 -1.25,1.03125 -1.34375,1.03125 -0.5,0 -0.890625,-0.296875 -1.125,-0.671875 -0.296875,-0.46875 -0.296875,-1.125 -0.296875,-1.484375 z m 0,0"
               transform="translate(291.30205,134.765)"
               id="path5436" />
          </g>
          <g
             style="fill:#000000;fill-opacity:1;stroke-width:0.75590503;stroke-miterlimit:4;stroke-dasharray:none"
             id="g5444">
            <path
               style="stroke:none;stroke-width:0.75590503;stroke-miterlimit:4;stroke-dasharray:none"
               d="M 4.6875,-2.140625 C 4.6875,-3.40625 3.703125,-4.46875 2.5,-4.46875 c -1.25,0 -2.21875,1.09375 -2.21875,2.328125 0,1.296875 1.03125,2.25 2.203125,2.25 1.203125,0 2.203125,-0.984375 2.203125,-2.25 z m -2.1875,2 c -0.4375,0 -0.875,-0.203125 -1.140625,-0.671875 -0.25,-0.4375 -0.25,-1.046875 -0.25,-1.40625 0,-0.390625 0,-0.921875 0.234375,-1.359375 C 1.609375,-4.03125 2.078125,-4.25 2.484375,-4.25 c 0.4375,0 0.859375,0.21875 1.125,0.65625 0.265625,0.421875 0.265625,1 0.265625,1.375 0,0.359375 0,0.90625 -0.21875,1.34375 C 3.421875,-0.421875 2.984375,-0.140625 2.5,-0.140625 Z m 0,0"
               transform="translate(299.04697,134.765)"
               id="path5440" />
            <path
               style="stroke:none;stroke-width:0.75590503;stroke-miterlimit:4;stroke-dasharray:none"
               d="M 1.09375,-3.421875 V -0.75 c 0,0.4375 -0.109375,0.4375 -0.78125,0.4375 V 0 c 0.359375,-0.015625 0.859375,-0.03125 1.140625,-0.03125 0.25,0 0.765625,0.015625 1.109375,0.03125 v -0.3125 c -0.671875,0 -0.78125,0 -0.78125,-0.4375 V -2.59375 C 1.78125,-3.625 2.5,-4.1875 3.125,-4.1875 c 0.640625,0 0.75,0.53125 0.75,1.109375 V -0.75 c 0,0.4375 -0.109375,0.4375 -0.78125,0.4375 V 0 c 0.34375,-0.015625 0.859375,-0.03125 1.125,-0.03125 0.25,0 0.78125,0.015625 1.109375,0.03125 v -0.3125 c -0.515625,0 -0.765625,0 -0.765625,-0.296875 v -1.90625 c 0,-0.859375 0,-1.15625 -0.3125,-1.515625 -0.140625,-0.171875 -0.46875,-0.375 -1.046875,-0.375 C 2.46875,-4.40625 2,-3.984375 1.71875,-3.359375 V -4.40625 L 0.3125,-4.296875 v 0.3125 c 0.703125,0 0.78125,0.0625 0.78125,0.5625 z m 0,0"
               transform="translate(304.02827,134.765)"
               id="path5442" />
          </g>
          <g
             style="fill:#000000;fill-opacity:1;stroke-width:0.75590503;stroke-miterlimit:4;stroke-dasharray:none"
             id="g5450">
            <path
               style="stroke:none;stroke-width:0.75590503;stroke-miterlimit:4;stroke-dasharray:none"
               d="M 1.765625,-4.40625 0.375,-4.296875 v 0.3125 c 0.640625,0 0.734375,0.0625 0.734375,0.546875 V -0.75 c 0,0.4375 -0.109375,0.4375 -0.78125,0.4375 V 0 C 0.640625,-0.015625 1.1875,-0.03125 1.421875,-0.03125 1.78125,-0.03125 2.125,-0.015625 2.46875,0 v -0.3125 c -0.671875,0 -0.703125,-0.046875 -0.703125,-0.4375 z m 0.03125,-1.734375 c 0,-0.3125 -0.234375,-0.53125 -0.515625,-0.53125 -0.3125,0 -0.53125,0.265625 -0.53125,0.53125 0,0.265625 0.21875,0.53125 0.53125,0.53125 0.28125,0 0.515625,-0.21875 0.515625,-0.53125 z m 0,0"
               transform="translate(312.891,134.765)"
               id="path5446" />
            <path
               style="stroke:none;stroke-width:0.75590503;stroke-miterlimit:4;stroke-dasharray:none"
               d="M 1.09375,-3.421875 V -0.75 c 0,0.4375 -0.109375,0.4375 -0.78125,0.4375 V 0 c 0.359375,-0.015625 0.859375,-0.03125 1.140625,-0.03125 0.25,0 0.765625,0.015625 1.109375,0.03125 v -0.3125 c -0.671875,0 -0.78125,0 -0.78125,-0.4375 V -2.59375 C 1.78125,-3.625 2.5,-4.1875 3.125,-4.1875 c 0.640625,0 0.75,0.53125 0.75,1.109375 V -0.75 c 0,0.4375 -0.109375,0.4375 -0.78125,0.4375 V 0 c 0.34375,-0.015625 0.859375,-0.03125 1.125,-0.03125 0.25,0 0.78125,0.015625 1.109375,0.03125 v -0.3125 c -0.515625,0 -0.765625,0 -0.765625,-0.296875 v -1.90625 c 0,-0.859375 0,-1.15625 -0.3125,-1.515625 -0.140625,-0.171875 -0.46875,-0.375 -1.046875,-0.375 C 2.46875,-4.40625 2,-3.984375 1.71875,-3.359375 V -4.40625 L 0.3125,-4.296875 v 0.3125 c 0.703125,0 0.78125,0.0625 0.78125,0.5625 z m 0,0"
               transform="translate(315.65861,134.765)"
               id="path5448" />
          </g>
          <g
             style="fill:#000000;fill-opacity:1;stroke-width:0.75590503;stroke-miterlimit:4;stroke-dasharray:none"
             id="g5460">
            <path
               style="stroke:none;stroke-width:0.75590503;stroke-miterlimit:4;stroke-dasharray:none"
               d="m 1.71875,-3.984375 h 1.4375 v -0.3125 H 1.71875 V -6.125 h -0.25 c 0,0.8125 -0.296875,1.875 -1.28125,1.921875 v 0.21875 h 0.84375 v 2.75 c 0,1.21875 0.9375,1.34375 1.296875,1.34375 0.703125,0 0.984375,-0.703125 0.984375,-1.34375 v -0.5625 h -0.25 V -1.25 c 0,0.734375 -0.296875,1.109375 -0.671875,1.109375 -0.671875,0 -0.671875,-0.90625 -0.671875,-1.078125 z m 0,0"
               transform="translate(320.91488,134.765)"
               id="path5452" />
            <path
               style="stroke:none;stroke-width:0.75590503;stroke-miterlimit:4;stroke-dasharray:none"
               d="M 1.109375,-2.515625 C 1.171875,-4 2.015625,-4.25 2.359375,-4.25 c 1.015625,0 1.125,1.34375 1.125,1.734375 z m 0,0.21875 h 2.78125 c 0.21875,0 0.25,0 0.25,-0.21875 0,-0.984375 -0.546875,-1.953125 -1.78125,-1.953125 -1.15625,0 -2.078125,1.03125 -2.078125,2.28125 0,1.328125 1.046875,2.296875 2.1875,2.296875 C 3.6875,0.109375 4.140625,-1 4.140625,-1.1875 4.140625,-1.28125 4.0625,-1.3125 4,-1.3125 c -0.078125,0 -0.109375,0.0625 -0.125,0.140625 -0.34375,1.03125 -1.25,1.03125 -1.34375,1.03125 -0.5,0 -0.890625,-0.296875 -1.125,-0.671875 -0.296875,-0.46875 -0.296875,-1.125 -0.296875,-1.484375 z m 0,0"
               transform="translate(324.78934,134.765)"
               id="path5454" />
            <path
               style="stroke:none;stroke-width:0.75590503;stroke-miterlimit:4;stroke-dasharray:none"
               d="M 1.671875,-3.3125 V -4.40625 L 0.28125,-4.296875 v 0.3125 c 0.703125,0 0.78125,0.0625 0.78125,0.5625 V -0.75 c 0,0.4375 -0.109375,0.4375 -0.78125,0.4375 V 0 c 0.390625,-0.015625 0.859375,-0.03125 1.140625,-0.03125 0.390625,0 0.859375,0 1.265625,0.03125 V -0.3125 H 2.46875 c -0.734375,0 -0.75,-0.109375 -0.75,-0.46875 V -2.3125 c 0,-0.984375 0.421875,-1.875 1.171875,-1.875 0.0625,0 0.09375,0 0.109375,0.015625 -0.03125,0 -0.234375,0.125 -0.234375,0.390625 0,0.265625 0.21875,0.421875 0.4375,0.421875 0.171875,0 0.421875,-0.125 0.421875,-0.4375 0,-0.3125 -0.3125,-0.609375 -0.734375,-0.609375 -0.734375,0 -1.09375,0.671875 -1.21875,1.09375 z m 0,0"
               transform="translate(329.21672,134.765)"
               id="path5456" />
            <path
               style="stroke:none;stroke-width:0.75590503;stroke-miterlimit:4;stroke-dasharray:none"
               d="M 4.140625,-3.3125 C 4.234375,-3.546875 4.40625,-3.984375 5.0625,-3.984375 v -0.3125 c -0.234375,0.015625 -0.515625,0.03125 -0.75,0.03125 -0.234375,0 -0.6875,-0.015625 -0.859375,-0.03125 v 0.3125 c 0.359375,0 0.46875,0.234375 0.46875,0.421875 0,0.09375 -0.015625,0.140625 -0.046875,0.25 L 2.84375,-0.78125 1.734375,-3.5625 c -0.0625,-0.125 -0.0625,-0.140625 -0.0625,-0.171875 0,-0.25 0.390625,-0.25 0.578125,-0.25 v -0.3125 c -0.3125,0.015625 -0.859375,0.03125 -1.09375,0.03125 -0.265625,0 -0.671875,-0.015625 -0.96875,-0.03125 v 0.3125 c 0.625,0 0.671875,0.0625 0.796875,0.359375 l 1.4375,3.546875 C 2.484375,0.0625 2.5,0.109375 2.625,0.109375 c 0.140625,0 0.171875,-0.09375 0.21875,-0.1875 z m 0,0"
               transform="translate(333.11907,134.765)"
               id="path5458" />
          </g>
          <g
             style="fill:#000000;fill-opacity:1;stroke-width:0.75590503;stroke-miterlimit:4;stroke-dasharray:none"
             id="g5468">
            <path
               style="stroke:none;stroke-width:0.75590503;stroke-miterlimit:4;stroke-dasharray:none"
               d="m 3.3125,-0.75 c 0.046875,0.390625 0.3125,0.8125 0.78125,0.8125 0.21875,0 0.828125,-0.140625 0.828125,-0.953125 v -0.5625 h -0.25 v 0.5625 c 0,0.578125 -0.25,0.640625 -0.359375,0.640625 -0.328125,0 -0.375,-0.453125 -0.375,-0.5 v -1.984375 c 0,-0.421875 0,-0.8125 -0.359375,-1.1875 C 3.1875,-4.3125 2.6875,-4.46875 2.21875,-4.46875 c -0.828125,0 -1.515625,0.46875 -1.515625,1.125 0,0.296875 0.203125,0.46875 0.46875,0.46875 0.28125,0 0.453125,-0.203125 0.453125,-0.453125 0,-0.125 -0.046875,-0.453125 -0.515625,-0.453125 C 1.390625,-4.140625 1.875,-4.25 2.1875,-4.25 c 0.5,0 1.0625,0.390625 1.0625,1.28125 v 0.359375 c -0.515625,0.03125 -1.203125,0.0625 -1.828125,0.359375 -0.75,0.34375 -1,0.859375 -1,1.296875 0,0.8125 0.96875,1.0625 1.59375,1.0625 0.65625,0 1.109375,-0.40625 1.296875,-0.859375 z M 3.25,-2.390625 v 1 c 0,0.9375 -0.71875,1.28125 -1.171875,1.28125 -0.484375,0 -0.890625,-0.34375 -0.890625,-0.84375 0,-0.546875 0.421875,-1.375 2.0625,-1.4375 z m 0,0"
               transform="translate(337.81942,134.765)"
               id="path5462" />
            <path
               style="stroke:none;stroke-width:0.75590503;stroke-miterlimit:4;stroke-dasharray:none"
               d="M 1.765625,-6.921875 0.328125,-6.8125 V -6.5 c 0.703125,0 0.78125,0.0625 0.78125,0.5625 V -0.75 c 0,0.4375 -0.109375,0.4375 -0.78125,0.4375 V 0 C 0.65625,-0.015625 1.1875,-0.03125 1.4375,-0.03125 c 0.25,0 0.734375,0.015625 1.109375,0.03125 v -0.3125 c -0.671875,0 -0.78125,0 -0.78125,-0.4375 z m 0,0"
               transform="translate(342.80072,134.765)"
               id="path5464" />
            <path
               style="stroke:none;stroke-width:0.75590503;stroke-miterlimit:4;stroke-dasharray:none"
               d="m 2.078125,-1.9375 c 0.21875,0.046875 1.03125,0.203125 1.03125,0.921875 0,0.5 -0.34375,0.90625 -1.125,0.90625 -0.84375,0 -1.203125,-0.5625 -1.390625,-1.421875 C 0.5625,-1.65625 0.5625,-1.6875 0.453125,-1.6875 c -0.125,0 -0.125,0.0625 -0.125,0.234375 V -0.125 c 0,0.171875 0,0.234375 0.109375,0.234375 0.046875,0 0.0625,-0.015625 0.25,-0.203125 0.015625,-0.015625 0.015625,-0.03125 0.203125,-0.21875 0.4375,0.40625 0.890625,0.421875 1.09375,0.421875 1.140625,0 1.609375,-0.671875 1.609375,-1.390625 0,-0.515625 -0.296875,-0.828125 -0.421875,-0.9375 C 2.84375,-2.546875 2.453125,-2.625 2.03125,-2.703125 1.46875,-2.8125 0.8125,-2.9375 0.8125,-3.515625 c 0,-0.359375 0.25,-0.765625 1.109375,-0.765625 1.09375,0 1.15625,0.90625 1.171875,1.203125 0,0.09375 0.09375,0.09375 0.109375,0.09375 0.140625,0 0.140625,-0.046875 0.140625,-0.234375 v -1.015625 c 0,-0.15625 0,-0.234375 -0.109375,-0.234375 -0.046875,0 -0.078125,0 -0.203125,0.125 -0.03125,0.03125 -0.125,0.125 -0.171875,0.15625 -0.375,-0.28125 -0.78125,-0.28125 -0.9375,-0.28125 -1.21875,0 -1.59375,0.671875 -1.59375,1.234375 0,0.34375 0.15625,0.625 0.421875,0.84375 0.328125,0.25 0.609375,0.3125 1.328125,0.453125 z m 0,0"
               transform="translate(345.56833,134.765)"
               id="path5466" />
          </g>
          <g
             style="fill:#000000;fill-opacity:1;stroke-width:0.75590503;stroke-miterlimit:4;stroke-dasharray:none"
             id="g5478">
            <path
               style="stroke:none;stroke-width:0.75590503;stroke-miterlimit:4;stroke-dasharray:none"
               d="m 6.171875,-3.34375 c 0.171875,-0.5 0.484375,-0.640625 0.84375,-0.640625 v -0.3125 C 6.78125,-4.28125 6.5,-4.265625 6.28125,-4.265625 c -0.296875,0 -0.734375,-0.015625 -0.921875,-0.03125 v 0.3125 c 0.359375,0 0.578125,0.1875 0.578125,0.46875 0,0.0625 0,0.09375 -0.0625,0.21875 L 4.96875,-0.75 3.984375,-3.53125 C 3.953125,-3.65625 3.9375,-3.671875 3.9375,-3.71875 c 0,-0.265625 0.390625,-0.265625 0.59375,-0.265625 v -0.3125 c -0.296875,0.015625 -0.796875,0.03125 -1.046875,0.03125 -0.296875,0 -0.578125,-0.015625 -0.875,-0.03125 v 0.3125 c 0.359375,0 0.515625,0.015625 0.625,0.140625 0.046875,0.0625 0.15625,0.359375 0.21875,0.546875 L 2.609375,-0.875 1.65625,-3.53125 C 1.609375,-3.65625 1.609375,-3.671875 1.609375,-3.71875 1.609375,-3.984375 2,-3.984375 2.1875,-3.984375 v -0.3125 c -0.296875,0.015625 -0.859375,0.03125 -1.078125,0.03125 -0.046875,0 -0.578125,-0.015625 -0.9375,-0.03125 v 0.3125 c 0.5,0 0.625,0.03125 0.75,0.34375 l 1.25,3.53125 C 2.21875,0.03125 2.25,0.109375 2.375,0.109375 c 0.140625,0 0.15625,-0.0625 0.203125,-0.203125 l 1.015625,-2.8125 1.015625,2.828125 c 0.03125,0.109375 0.0625,0.1875 0.203125,0.1875 0.125,0 0.15625,-0.09375 0.1875,-0.1875 z m 0,0"
               transform="translate(253.694,146.72)"
               id="path5470" />
            <path
               style="stroke:none;stroke-width:0.75590503;stroke-miterlimit:4;stroke-dasharray:none"
               d="m 1.09375,-0.75 c 0,0.4375 -0.109375,0.4375 -0.78125,0.4375 V 0 c 0.359375,-0.015625 0.859375,-0.03125 1.140625,-0.03125 0.25,0 0.765625,0.015625 1.109375,0.03125 v -0.3125 c -0.671875,0 -0.78125,0 -0.78125,-0.4375 V -2.59375 C 1.78125,-3.625 2.5,-4.1875 3.125,-4.1875 c 0.640625,0 0.75,0.53125 0.75,1.109375 V -0.75 c 0,0.4375 -0.109375,0.4375 -0.78125,0.4375 V 0 c 0.34375,-0.015625 0.859375,-0.03125 1.125,-0.03125 0.25,0 0.78125,0.015625 1.109375,0.03125 v -0.3125 c -0.515625,0 -0.765625,0 -0.765625,-0.296875 v -1.90625 c 0,-0.859375 0,-1.15625 -0.3125,-1.515625 -0.140625,-0.171875 -0.46875,-0.375 -1.046875,-0.375 -0.84375,0 -1.28125,0.59375 -1.453125,0.984375 v -3.5 L 0.3125,-6.8125 V -6.5 c 0.703125,0 0.78125,0.0625 0.78125,0.5625 z m 0,0"
               transform="translate(260.88899,146.72)"
               id="path5472" />
            <path
               style="stroke:none;stroke-width:0.75590503;stroke-miterlimit:4;stroke-dasharray:none"
               d="M 1.765625,-4.40625 0.375,-4.296875 v 0.3125 c 0.640625,0 0.734375,0.0625 0.734375,0.546875 V -0.75 c 0,0.4375 -0.109375,0.4375 -0.78125,0.4375 V 0 C 0.640625,-0.015625 1.1875,-0.03125 1.421875,-0.03125 1.78125,-0.03125 2.125,-0.015625 2.46875,0 v -0.3125 c -0.671875,0 -0.703125,-0.046875 -0.703125,-0.4375 z m 0.03125,-1.734375 c 0,-0.3125 -0.234375,-0.53125 -0.515625,-0.53125 -0.3125,0 -0.53125,0.265625 -0.53125,0.53125 0,0.265625 0.21875,0.53125 0.53125,0.53125 0.28125,0 0.515625,-0.21875 0.515625,-0.53125 z m 0,0"
               transform="translate(266.42421,146.72)"
               id="path5474" />
            <path
               style="stroke:none;stroke-width:0.75590503;stroke-miterlimit:4;stroke-dasharray:none"
               d="m 1.171875,-2.171875 c 0,-1.625 0.8125,-2.046875 1.34375,-2.046875 0.09375,0 0.71875,0.015625 1.0625,0.375 -0.40625,0.03125 -0.46875,0.328125 -0.46875,0.453125 0,0.265625 0.1875,0.453125 0.453125,0.453125 0.265625,0 0.46875,-0.15625 0.46875,-0.46875 0,-0.671875 -0.765625,-1.0625 -1.53125,-1.0625 -1.25,0 -2.15625,1.078125 -2.15625,2.3125 0,1.28125 0.984375,2.265625 2.140625,2.265625 1.328125,0 1.65625,-1.203125 1.65625,-1.296875 0,-0.09375 -0.109375,-0.09375 -0.140625,-0.09375 -0.078125,0 -0.109375,0.03125 -0.125,0.09375 -0.28125,0.921875 -0.9375,1.046875 -1.296875,1.046875 -0.53125,0 -1.40625,-0.421875 -1.40625,-2.03125 z m 0,0"
               transform="translate(269.19182,146.72)"
               id="path5476" />
          </g>
          <g
             style="fill:#000000;fill-opacity:1;stroke-width:0.75590503;stroke-miterlimit:4;stroke-dasharray:none"
             id="g5482">
            <path
               style="stroke:none;stroke-width:0.75590503;stroke-miterlimit:4;stroke-dasharray:none"
               d="m 1.09375,-0.75 c 0,0.4375 -0.109375,0.4375 -0.78125,0.4375 V 0 c 0.359375,-0.015625 0.859375,-0.03125 1.140625,-0.03125 0.25,0 0.765625,0.015625 1.109375,0.03125 v -0.3125 c -0.671875,0 -0.78125,0 -0.78125,-0.4375 V -2.59375 C 1.78125,-3.625 2.5,-4.1875 3.125,-4.1875 c 0.640625,0 0.75,0.53125 0.75,1.109375 V -0.75 c 0,0.4375 -0.109375,0.4375 -0.78125,0.4375 V 0 c 0.34375,-0.015625 0.859375,-0.03125 1.125,-0.03125 0.25,0 0.78125,0.015625 1.109375,0.03125 v -0.3125 c -0.515625,0 -0.765625,0 -0.765625,-0.296875 v -1.90625 c 0,-0.859375 0,-1.15625 -0.3125,-1.515625 -0.140625,-0.171875 -0.46875,-0.375 -1.046875,-0.375 -0.84375,0 -1.28125,0.59375 -1.453125,0.984375 v -3.5 L 0.3125,-6.8125 V -6.5 c 0.703125,0 0.78125,0.0625 0.78125,0.5625 z m 0,0"
               transform="translate(273.34025,146.72)"
               id="path5480" />
          </g>
          <g
             style="fill:#000000;fill-opacity:1;stroke-width:0.75590503;stroke-miterlimit:4;stroke-dasharray:none"
             id="g5490">
            <path
               style="stroke:none;stroke-width:0.75590503;stroke-miterlimit:4;stroke-dasharray:none"
               d="m 3.3125,-0.75 c 0.046875,0.390625 0.3125,0.8125 0.78125,0.8125 0.21875,0 0.828125,-0.140625 0.828125,-0.953125 v -0.5625 h -0.25 v 0.5625 c 0,0.578125 -0.25,0.640625 -0.359375,0.640625 -0.328125,0 -0.375,-0.453125 -0.375,-0.5 v -1.984375 c 0,-0.421875 0,-0.8125 -0.359375,-1.1875 C 3.1875,-4.3125 2.6875,-4.46875 2.21875,-4.46875 c -0.828125,0 -1.515625,0.46875 -1.515625,1.125 0,0.296875 0.203125,0.46875 0.46875,0.46875 0.28125,0 0.453125,-0.203125 0.453125,-0.453125 0,-0.125 -0.046875,-0.453125 -0.515625,-0.453125 C 1.390625,-4.140625 1.875,-4.25 2.1875,-4.25 c 0.5,0 1.0625,0.390625 1.0625,1.28125 v 0.359375 c -0.515625,0.03125 -1.203125,0.0625 -1.828125,0.359375 -0.75,0.34375 -1,0.859375 -1,1.296875 0,0.8125 0.96875,1.0625 1.59375,1.0625 0.65625,0 1.109375,-0.40625 1.296875,-0.859375 z M 3.25,-2.390625 v 1 c 0,0.9375 -0.71875,1.28125 -1.171875,1.28125 -0.484375,0 -0.890625,-0.34375 -0.890625,-0.84375 0,-0.546875 0.421875,-1.375 2.0625,-1.4375 z m 0,0"
               transform="translate(282.19301,146.72)"
               id="path5484" />
            <path
               style="stroke:none;stroke-width:0.75590503;stroke-miterlimit:4;stroke-dasharray:none"
               d="M 1.671875,-3.3125 V -4.40625 L 0.28125,-4.296875 v 0.3125 c 0.703125,0 0.78125,0.0625 0.78125,0.5625 V -0.75 c 0,0.4375 -0.109375,0.4375 -0.78125,0.4375 V 0 c 0.390625,-0.015625 0.859375,-0.03125 1.140625,-0.03125 0.390625,0 0.859375,0 1.265625,0.03125 V -0.3125 H 2.46875 c -0.734375,0 -0.75,-0.109375 -0.75,-0.46875 V -2.3125 c 0,-0.984375 0.421875,-1.875 1.171875,-1.875 0.0625,0 0.09375,0 0.109375,0.015625 -0.03125,0 -0.234375,0.125 -0.234375,0.390625 0,0.265625 0.21875,0.421875 0.4375,0.421875 0.171875,0 0.421875,-0.125 0.421875,-0.4375 0,-0.3125 -0.3125,-0.609375 -0.734375,-0.609375 -0.734375,0 -1.09375,0.671875 -1.21875,1.09375 z m 0,0"
               transform="translate(287.17431,146.72)"
               id="path5486" />
            <path
               style="stroke:none;stroke-width:0.75590503;stroke-miterlimit:4;stroke-dasharray:none"
               d="M 1.109375,-2.515625 C 1.171875,-4 2.015625,-4.25 2.359375,-4.25 c 1.015625,0 1.125,1.34375 1.125,1.734375 z m 0,0.21875 h 2.78125 c 0.21875,0 0.25,0 0.25,-0.21875 0,-0.984375 -0.546875,-1.953125 -1.78125,-1.953125 -1.15625,0 -2.078125,1.03125 -2.078125,2.28125 0,1.328125 1.046875,2.296875 2.1875,2.296875 C 3.6875,0.109375 4.140625,-1 4.140625,-1.1875 4.140625,-1.28125 4.0625,-1.3125 4,-1.3125 c -0.078125,0 -0.109375,0.0625 -0.125,0.140625 -0.34375,1.03125 -1.25,1.03125 -1.34375,1.03125 -0.5,0 -0.890625,-0.296875 -1.125,-0.671875 -0.296875,-0.46875 -0.296875,-1.125 -0.296875,-1.484375 z m 0,0"
               transform="translate(291.07666,146.72)"
               id="path5488" />
          </g>
          <g
             style="fill:#000000;fill-opacity:1;stroke-width:0.75590503;stroke-miterlimit:4;stroke-dasharray:none"
             id="g5502">
            <path
               style="stroke:none;stroke-width:0.75590503;stroke-miterlimit:4;stroke-dasharray:none"
               d="m 2.078125,-1.9375 c 0.21875,0.046875 1.03125,0.203125 1.03125,0.921875 0,0.5 -0.34375,0.90625 -1.125,0.90625 -0.84375,0 -1.203125,-0.5625 -1.390625,-1.421875 C 0.5625,-1.65625 0.5625,-1.6875 0.453125,-1.6875 c -0.125,0 -0.125,0.0625 -0.125,0.234375 V -0.125 c 0,0.171875 0,0.234375 0.109375,0.234375 0.046875,0 0.0625,-0.015625 0.25,-0.203125 0.015625,-0.015625 0.015625,-0.03125 0.203125,-0.21875 0.4375,0.40625 0.890625,0.421875 1.09375,0.421875 1.140625,0 1.609375,-0.671875 1.609375,-1.390625 0,-0.515625 -0.296875,-0.828125 -0.421875,-0.9375 C 2.84375,-2.546875 2.453125,-2.625 2.03125,-2.703125 1.46875,-2.8125 0.8125,-2.9375 0.8125,-3.515625 c 0,-0.359375 0.25,-0.765625 1.109375,-0.765625 1.09375,0 1.15625,0.90625 1.171875,1.203125 0,0.09375 0.09375,0.09375 0.109375,0.09375 0.140625,0 0.140625,-0.046875 0.140625,-0.234375 v -1.015625 c 0,-0.15625 0,-0.234375 -0.109375,-0.234375 -0.046875,0 -0.078125,0 -0.203125,0.125 -0.03125,0.03125 -0.125,0.125 -0.171875,0.15625 -0.375,-0.28125 -0.78125,-0.28125 -0.9375,-0.28125 -1.21875,0 -1.59375,0.671875 -1.59375,1.234375 0,0.34375 0.15625,0.625 0.421875,0.84375 0.328125,0.25 0.609375,0.3125 1.328125,0.453125 z m 0,0"
               transform="translate(298.83155,146.72)"
               id="path5492" />
            <path
               style="stroke:none;stroke-width:0.75590503;stroke-miterlimit:4;stroke-dasharray:none"
               d="m 1.71875,-3.984375 h 1.4375 v -0.3125 H 1.71875 V -6.125 h -0.25 c 0,0.8125 -0.296875,1.875 -1.28125,1.921875 v 0.21875 h 0.84375 v 2.75 c 0,1.21875 0.9375,1.34375 1.296875,1.34375 0.703125,0 0.984375,-0.703125 0.984375,-1.34375 v -0.5625 h -0.25 V -1.25 c 0,0.734375 -0.296875,1.109375 -0.671875,1.109375 -0.671875,0 -0.671875,-0.90625 -0.671875,-1.078125 z m 0,0"
               transform="translate(302.7608,146.72)"
               id="path5494" />
            <path
               style="stroke:none;stroke-width:0.75590503;stroke-miterlimit:4;stroke-dasharray:none"
               d="M 1.765625,-4.40625 0.375,-4.296875 v 0.3125 c 0.640625,0 0.734375,0.0625 0.734375,0.546875 V -0.75 c 0,0.4375 -0.109375,0.4375 -0.78125,0.4375 V 0 C 0.640625,-0.015625 1.1875,-0.03125 1.421875,-0.03125 1.78125,-0.03125 2.125,-0.015625 2.46875,0 v -0.3125 c -0.671875,0 -0.703125,-0.046875 -0.703125,-0.4375 z m 0.03125,-1.734375 c 0,-0.3125 -0.234375,-0.53125 -0.515625,-0.53125 -0.3125,0 -0.53125,0.265625 -0.53125,0.53125 0,0.265625 0.21875,0.53125 0.53125,0.53125 0.28125,0 0.515625,-0.21875 0.515625,-0.53125 z m 0,0"
               transform="translate(306.63526,146.72)"
               id="path5496" />
            <path
               style="stroke:none;stroke-width:0.75590503;stroke-miterlimit:4;stroke-dasharray:none"
               d="M 1.765625,-6.921875 0.328125,-6.8125 V -6.5 c 0.703125,0 0.78125,0.0625 0.78125,0.5625 V -0.75 c 0,0.4375 -0.109375,0.4375 -0.78125,0.4375 V 0 C 0.65625,-0.015625 1.1875,-0.03125 1.4375,-0.03125 c 0.25,0 0.734375,0.015625 1.109375,0.03125 v -0.3125 c -0.671875,0 -0.78125,0 -0.78125,-0.4375 z m 0,0"
               transform="translate(309.40287,146.72)"
               id="path5498" />
            <path
               style="stroke:none;stroke-width:0.75590503;stroke-miterlimit:4;stroke-dasharray:none"
               d="M 1.765625,-6.921875 0.328125,-6.8125 V -6.5 c 0.703125,0 0.78125,0.0625 0.78125,0.5625 V -0.75 c 0,0.4375 -0.109375,0.4375 -0.78125,0.4375 V 0 C 0.65625,-0.015625 1.1875,-0.03125 1.4375,-0.03125 c 0.25,0 0.734375,0.015625 1.109375,0.03125 v -0.3125 c -0.671875,0 -0.78125,0 -0.78125,-0.4375 z m 0,0"
               transform="translate(312.17048,146.72)"
               id="path5500" />
          </g>
          <g
             style="fill:#000000;fill-opacity:1;stroke-width:0.75590503;stroke-miterlimit:4;stroke-dasharray:none"
             id="g5514">
            <path
               style="stroke:none;stroke-width:0.75590503;stroke-miterlimit:4;stroke-dasharray:none"
               d="M 3.890625,-0.78125 V 0.109375 L 5.328125,0 V -0.3125 C 4.640625,-0.3125 4.5625,-0.375 4.5625,-0.875 v -3.53125 l -1.46875,0.109375 v 0.3125 c 0.6875,0 0.78125,0.0625 0.78125,0.5625 v 1.765625 c 0,0.875 -0.484375,1.546875 -1.21875,1.546875 -0.828125,0 -0.875,-0.46875 -0.875,-0.984375 v -3.3125 L 0.3125,-4.296875 v 0.3125 c 0.78125,0 0.78125,0.03125 0.78125,0.90625 v 1.5 c 0,0.78125 0,1.6875 1.515625,1.6875 0.5625,0 1,-0.28125 1.28125,-0.890625 z m 0,0"
               transform="translate(318.25563,146.72)"
               id="path5504" />
            <path
               style="stroke:none;stroke-width:0.75590503;stroke-miterlimit:4;stroke-dasharray:none"
               d="M 1.09375,-3.421875 V -0.75 c 0,0.4375 -0.109375,0.4375 -0.78125,0.4375 V 0 c 0.359375,-0.015625 0.859375,-0.03125 1.140625,-0.03125 0.25,0 0.765625,0.015625 1.109375,0.03125 v -0.3125 c -0.671875,0 -0.78125,0 -0.78125,-0.4375 V -2.59375 C 1.78125,-3.625 2.5,-4.1875 3.125,-4.1875 c 0.640625,0 0.75,0.53125 0.75,1.109375 V -0.75 c 0,0.4375 -0.109375,0.4375 -0.78125,0.4375 V 0 c 0.34375,-0.015625 0.859375,-0.03125 1.125,-0.03125 0.25,0 0.78125,0.015625 1.109375,0.03125 v -0.3125 c -0.515625,0 -0.765625,0 -0.765625,-0.296875 v -1.90625 c 0,-0.859375 0,-1.15625 -0.3125,-1.515625 -0.140625,-0.171875 -0.46875,-0.375 -1.046875,-0.375 C 2.46875,-4.40625 2,-3.984375 1.71875,-3.359375 V -4.40625 L 0.3125,-4.296875 v 0.3125 c 0.703125,0 0.78125,0.0625 0.78125,0.5625 z m 0,0"
               transform="translate(323.79085,146.72)"
               id="path5506" />
            <path
               style="stroke:none;stroke-width:0.75590503;stroke-miterlimit:4;stroke-dasharray:none"
               d="m 1.0625,-0.75 c 0,0.4375 -0.109375,0.4375 -0.78125,0.4375 V 0 c 0.328125,-0.015625 0.796875,-0.03125 1.078125,-0.03125 0.3125,0 0.703125,0.015625 1.109375,0.03125 v -0.3125 c -0.671875,0 -0.78125,0 -0.78125,-0.4375 v -1.03125 l 0.640625,-0.546875 c 0.765625,1.046875 1.1875,1.609375 1.1875,1.796875 0,0.1875 -0.171875,0.21875 -0.359375,0.21875 V 0 c 0.265625,-0.015625 0.859375,-0.03125 1.078125,-0.03125 0.28125,0 0.578125,0.015625 0.859375,0.03125 v -0.3125 c -0.375,0 -0.59375,0 -0.96875,-0.53125 L 2.859375,-2.625 c -0.015625,-0.015625 -0.0625,-0.078125 -0.0625,-0.109375 0,-0.03125 0.71875,-0.640625 0.8125,-0.71875 0.625,-0.5 1.046875,-0.53125 1.25,-0.53125 v -0.3125 c -0.28125,0.03125 -0.40625,0.03125 -0.6875,0.03125 -0.359375,0 -0.984375,-0.015625 -1.125,-0.03125 v 0.3125 c 0.1875,0 0.296875,0.109375 0.296875,0.25 0,0.203125 -0.140625,0.3125 -0.21875,0.390625 l -1.40625,1.203125 v -4.78125 L 0.28125,-6.8125 V -6.5 c 0.703125,0 0.78125,0.0625 0.78125,0.5625 z m 0,0"
               transform="translate(329.32607,146.72)"
               id="path5508" />
            <path
               style="stroke:none;stroke-width:0.75590503;stroke-miterlimit:4;stroke-dasharray:none"
               d="M 1.09375,-3.421875 V -0.75 c 0,0.4375 -0.109375,0.4375 -0.78125,0.4375 V 0 c 0.359375,-0.015625 0.859375,-0.03125 1.140625,-0.03125 0.25,0 0.765625,0.015625 1.109375,0.03125 v -0.3125 c -0.671875,0 -0.78125,0 -0.78125,-0.4375 V -2.59375 C 1.78125,-3.625 2.5,-4.1875 3.125,-4.1875 c 0.640625,0 0.75,0.53125 0.75,1.109375 V -0.75 c 0,0.4375 -0.109375,0.4375 -0.78125,0.4375 V 0 c 0.34375,-0.015625 0.859375,-0.03125 1.125,-0.03125 0.25,0 0.78125,0.015625 1.109375,0.03125 v -0.3125 c -0.515625,0 -0.765625,0 -0.765625,-0.296875 v -1.90625 c 0,-0.859375 0,-1.15625 -0.3125,-1.515625 -0.140625,-0.171875 -0.46875,-0.375 -1.046875,-0.375 C 2.46875,-4.40625 2,-3.984375 1.71875,-3.359375 V -4.40625 L 0.3125,-4.296875 v 0.3125 c 0.703125,0 0.78125,0.0625 0.78125,0.5625 z m 0,0"
               transform="translate(334.58433,146.72)"
               id="path5510" />
            <path
               style="stroke:none;stroke-width:0.75590503;stroke-miterlimit:4;stroke-dasharray:none"
               d="M 4.6875,-2.140625 C 4.6875,-3.40625 3.703125,-4.46875 2.5,-4.46875 c -1.25,0 -2.21875,1.09375 -2.21875,2.328125 0,1.296875 1.03125,2.25 2.203125,2.25 1.203125,0 2.203125,-0.984375 2.203125,-2.25 z m -2.1875,2 c -0.4375,0 -0.875,-0.203125 -1.140625,-0.671875 -0.25,-0.4375 -0.25,-1.046875 -0.25,-1.40625 0,-0.390625 0,-0.921875 0.234375,-1.359375 C 1.609375,-4.03125 2.078125,-4.25 2.484375,-4.25 c 0.4375,0 0.859375,0.21875 1.125,0.65625 0.265625,0.421875 0.265625,1 0.265625,1.375 0,0.359375 0,0.90625 -0.21875,1.34375 C 3.421875,-0.421875 2.984375,-0.140625 2.5,-0.140625 Z m 0,0"
               transform="translate(340.11955,146.72)"
               id="path5512" />
          </g>
          <g
             style="fill:#000000;fill-opacity:1;stroke-width:0.75590503;stroke-miterlimit:4;stroke-dasharray:none"
             id="g5520">
            <path
               style="stroke:none;stroke-width:0.75590503;stroke-miterlimit:4;stroke-dasharray:none"
               d="m 6.171875,-3.34375 c 0.171875,-0.5 0.484375,-0.640625 0.84375,-0.640625 v -0.3125 C 6.78125,-4.28125 6.5,-4.265625 6.28125,-4.265625 c -0.296875,0 -0.734375,-0.015625 -0.921875,-0.03125 v 0.3125 c 0.359375,0 0.578125,0.1875 0.578125,0.46875 0,0.0625 0,0.09375 -0.0625,0.21875 L 4.96875,-0.75 3.984375,-3.53125 C 3.953125,-3.65625 3.9375,-3.671875 3.9375,-3.71875 c 0,-0.265625 0.390625,-0.265625 0.59375,-0.265625 v -0.3125 c -0.296875,0.015625 -0.796875,0.03125 -1.046875,0.03125 -0.296875,0 -0.578125,-0.015625 -0.875,-0.03125 v 0.3125 c 0.359375,0 0.515625,0.015625 0.625,0.140625 0.046875,0.0625 0.15625,0.359375 0.21875,0.546875 L 2.609375,-0.875 1.65625,-3.53125 C 1.609375,-3.65625 1.609375,-3.671875 1.609375,-3.71875 1.609375,-3.984375 2,-3.984375 2.1875,-3.984375 v -0.3125 c -0.296875,0.015625 -0.859375,0.03125 -1.078125,0.03125 -0.046875,0 -0.578125,-0.015625 -0.9375,-0.03125 v 0.3125 c 0.5,0 0.625,0.03125 0.75,0.34375 l 1.25,3.53125 C 2.21875,0.03125 2.25,0.109375 2.375,0.109375 c 0.140625,0 0.15625,-0.0625 0.203125,-0.203125 l 1.015625,-2.8125 1.015625,2.828125 c 0.03125,0.109375 0.0625,0.1875 0.203125,0.1875 0.125,0 0.15625,-0.09375 0.1875,-0.1875 z m 0,0"
               transform="translate(344.8219,146.72)"
               id="path5516" />
            <path
               style="stroke:none;stroke-width:0.75590503;stroke-miterlimit:4;stroke-dasharray:none"
               d="M 1.09375,-3.421875 V -0.75 c 0,0.4375 -0.109375,0.4375 -0.78125,0.4375 V 0 c 0.359375,-0.015625 0.859375,-0.03125 1.140625,-0.03125 0.25,0 0.765625,0.015625 1.109375,0.03125 v -0.3125 c -0.671875,0 -0.78125,0 -0.78125,-0.4375 V -2.59375 C 1.78125,-3.625 2.5,-4.1875 3.125,-4.1875 c 0.640625,0 0.75,0.53125 0.75,1.109375 V -0.75 c 0,0.4375 -0.109375,0.4375 -0.78125,0.4375 V 0 c 0.34375,-0.015625 0.859375,-0.03125 1.125,-0.03125 0.25,0 0.78125,0.015625 1.109375,0.03125 v -0.3125 c -0.515625,0 -0.765625,0 -0.765625,-0.296875 v -1.90625 c 0,-0.859375 0,-1.15625 -0.3125,-1.515625 -0.140625,-0.171875 -0.46875,-0.375 -1.046875,-0.375 C 2.46875,-4.40625 2,-3.984375 1.71875,-3.359375 V -4.40625 L 0.3125,-4.296875 v 0.3125 c 0.703125,0 0.78125,0.0625 0.78125,0.5625 z m 0,0"
               transform="translate(352.01689,146.72)"
               id="path5518" />
          </g>
        </g>
      </g>
    </g>
  </g>
</svg>
